<?xml version="1.0" encoding="UTF-8" standalone="no"?><!DOCTYPE svg PUBLIC "-//W3C//DTD SVG 1.1//EN" "http://www.w3.org/Graphics/SVG/1.1/DTD/svg11.dtd"><svg width="100%" height="100%" viewBox="0 0 1779 538" version="1.1" xmlns="http://www.w3.org/2000/svg" xmlns:xlink="http://www.w3.org/1999/xlink" xml:space="preserve" xmlns:serif="http://www.serif.com/" style="fill-rule:evenodd;clip-rule:evenodd;stroke-linejoin:round;stroke-miterlimit:2;"><g><g><path d="M167.147,0l-167.147,0l-0,537.252l167.147,0c188.141,0 298.765,-100.686 298.765,-267.473c0,-168.324 -110.624,-269.779 -298.765,-269.779Zm-110.624,492.673l0,-448.094l110.624,-0c159.88,-0 241.435,86.083 241.435,225.2c-0,138.348 -81.555,222.894 -241.435,222.894l-110.624,0Z" style="fill:#1e4174;fill-rule:nonzero;"/><path d="M117.366,148.221c0.493,140.245 245.115,55.847 248.785,232.956l-45.966,6.162c0,-144.703 -248.827,-53.386 -248.827,-238.128l46.007,-1.405l0.001,0.415Z" style="fill:#dfa94a;fill-rule:nonzero;"/></g><g><g><g><path d="M579.477,161.806l-42.349,-0l0,143.004l42.349,-0c47.668,-0 75.696,-26.801 75.696,-71.195c-0,-44.804 -28.028,-71.809 -75.696,-71.809Zm-28.028,131.138l-0,-119.272l28.028,-0c40.507,-0 61.17,22.913 61.17,59.943c0,36.825 -20.663,59.329 -61.17,59.329l-28.028,-0Z" style="fill:#1f4274;fill-rule:nonzero;"/><path d="M675.017,248.754c0,34.984 22.709,57.692 53.192,57.692c22.3,0 37.848,-12.07 44.395,-26.391l-0,24.755l14.321,-0l-0,-111.703l-14.321,0l-0,24.55c-6.342,-14.116 -21.686,-26.187 -44.19,-26.187c-30.688,0 -53.397,22.3 -53.397,57.284Zm97.587,0.204c-0,27.824 -18.617,45.009 -41.531,45.009c-23.527,-0 -41.53,-16.981 -41.53,-45.213c-0,-28.437 18.003,-44.804 41.53,-44.804c22.914,-0 41.531,17.185 41.531,45.008Z" style="fill:#1f4274;fill-rule:nonzero;"/><path d="M903.333,304.81l14.116,-0l-0,-65.467c-0,-32.733 -20.049,-48.282 -45.418,-48.282c-16.571,0 -30.892,7.161 -38.052,21.072l-0,-19.026l-14.321,0l-0,111.703l14.321,-0l-0,-60.966c-0,-27.21 14.525,-40.303 35.393,-40.303c20.458,-0 33.961,12.684 33.961,37.439l-0,63.83Z" style="fill:#1f4274;fill-rule:nonzero;"/><path d="M949.159,304.81l14.321,-0l0,-111.703l-14.321,0l0,111.703Zm7.161,-132.775c5.728,-0 10.434,-4.501 10.434,-10.638c-0,-6.138 -4.706,-10.434 -10.434,-10.434c-5.729,-0 -10.434,4.296 -10.434,10.434c0,6.137 4.705,10.638 10.434,10.638Z" style="fill:#1f4274;fill-rule:nonzero;"/><path d="M1043.68,203.745c20.663,0 39.485,13.094 38.871,39.076l-78.56,-0c1.636,-25.982 19.435,-39.076 39.689,-39.076Zm51.76,65.672l-15.14,-0c-4.091,14.934 -16.98,24.959 -36.006,24.959c-20.868,-0 -39.076,-13.707 -40.303,-39.894l92.676,0c0.409,-3.887 0.409,-6.751 0.409,-11.252c0,-28.437 -20.049,-51.76 -52.782,-51.76c-32.12,0 -54.829,21.891 -54.829,57.488c0,35.393 23.118,57.488 54.829,57.488c28.028,0 46.031,-15.957 51.146,-37.029Z" style="fill:#1f4274;fill-rule:nonzero;"/><rect x="1123.26" y="153.418" width="14.321" height="151.392" style="fill:#1f4274;fill-rule:nonzero;"/></g><g><path d="M1279.88,262.461c0,-53.192 -78.56,-27.824 -78.56,-69.149c0,-16.572 13.912,-25.778 30.688,-25.573c19.844,0.204 29.46,12.479 31.096,22.504l15.549,-0c-2.455,-19.64 -18.822,-34.779 -46.032,-34.779c-27.618,-0 -45.826,16.162 -45.826,38.257c-0,53.805 78.56,27.209 78.56,69.354c-0,14.73 -11.661,26.391 -31.506,26.391c-23.118,-0 -31.915,-14.321 -33.143,-26.187l-15.139,0c0.819,21.891 19.64,38.257 48.282,38.257c30.278,0 46.031,-19.64 46.031,-39.075Z" style="fill:#1f4274;fill-rule:nonzero;"/><path d="M1412.65,244.253c-0,-35.598 -24.345,-57.488 -55.851,-57.488c-31.302,-0 -55.852,21.89 -55.852,57.488c0,35.393 23.937,57.488 55.442,57.488c31.506,-0 56.261,-22.095 56.261,-57.488Zm-97.177,-0c-0,-30.688 19.844,-45.008 41.121,-45.008c21.277,-0 41.326,14.32 41.326,45.008c-0,30.687 -20.458,45.008 -41.531,45.008c-21.276,0 -40.916,-14.321 -40.916,-45.008Z" style="fill:#1f4274;fill-rule:nonzero;"/><path d="M1535.61,188.402l-14.321,-0l-0,60.761c-0,27.21 -14.526,40.303 -35.393,40.303c-20.458,-0 -33.961,-12.684 -33.961,-37.439l0,-63.625l-14.116,-0l-0,65.262c-0,32.733 20.049,48.281 45.417,48.281c16.572,0 31.302,-7.365 38.053,-21.481l-0,19.64l14.321,0l-0,-111.702Z" style="fill:#1f4274;fill-rule:nonzero;"/><path d="M1645.67,270.44c-0.614,-39.485 -66.695,-23.323 -66.695,-53.601c0,-9.82 9.411,-17.799 24.346,-17.799c16.98,-0 26.187,9.411 27.005,21.89l14.321,0c-1.228,-21.481 -16.981,-34.165 -40.917,-34.165c-23.527,-0 -39.28,13.707 -39.28,30.278c-0,41.94 67.103,25.778 67.103,53.397c0,10.638 -9.001,19.23 -24.959,19.23c-18.208,0 -28.846,-8.797 -30.074,-21.072l-14.73,0c1.842,20.459 19.64,33.143 45.009,33.143c23.118,-0 38.871,-13.298 38.871,-31.301Z" style="fill:#1f4274;fill-rule:nonzero;"/><path d="M1666.13,244.048c-0,34.984 22.709,57.693 53.192,57.693c22.299,-0 37.848,-12.071 44.394,-26.391l0,24.754l14.321,0l0,-111.702l-14.321,-0l0,24.55c-6.342,-14.117 -21.686,-26.187 -44.19,-26.187c-30.687,-0 -53.396,22.3 -53.396,57.283Zm97.586,0.205c0,27.823 -18.617,45.008 -41.53,45.008c-23.527,0 -41.531,-16.98 -41.531,-45.213c0,-28.437 18.004,-44.803 41.531,-44.803c22.913,-0 41.53,17.185 41.53,45.008Z" style="fill:#1f4274;fill-rule:nonzero;"/></g></g><g><path d="M546.028,385.939l10.35,0l5.8,-23.1l5.6,23.1l10.35,0l9.15,-35.1l-9.2,0l-5.1,25.55l-6,-25.55l-9.4,0l-6.25,25.55l-5.05,-25.55l-9.15,0l8.9,35.1Z" style="fill:#dfa94a;fill-rule:nonzero;"/><path d="M613.078,350.839l-21.5,0l0,35.1l21.5,0l0,-6.85l-12.95,0l0,-7.7l11.45,0l0,-6.6l-11.45,0l0,-7.1l12.95,0l0,-6.85Z" style="fill:#dfa94a;fill-rule:nonzero;"/><path d="M637.978,375.239c0,2.5 -1.65,3.8 -4.5,3.8l-6.3,0l0,-7.75l6.2,0c2.85,0 4.6,1.45 4.6,3.95Zm-0.85,-13.85c0,2.4 -1.55,3.65 -4.35,3.65l-5.6,0l0,-7.35l5.6,0c2.8,0 4.35,1.3 4.35,3.7Zm9.5,15c0,-4 -2.65,-7.6 -6.75,-8.45c3.4,-1 5.95,-3.75 5.95,-8c0,-5.55 -4.25,-9.1 -11.4,-9.1l-15.8,0l0,35.1l16.35,0c7.4,0 11.65,-3.75 11.65,-9.55Z" style="fill:#dfa94a;fill-rule:nonzero;"/><path d="M675.328,350.839l-13.15,0l0,35.1l13.15,0c11.2,0 18.4,-7.15 18.4,-17.55c0,-10.45 -7.2,-17.55 -18.4,-17.55Zm-4.6,27.7l0,-20.4l4.05,0c6.45,0 10.25,3.8 10.25,10.25c0,6.45 -3.8,10.15 -10.25,10.15l-4.05,0Z" style="fill:#dfa94a;fill-rule:nonzero;"/><path d="M720.028,350.839l-21.5,0l0,35.1l21.5,0l0,-6.85l-12.95,0l0,-7.7l11.45,0l0,-6.6l-11.45,0l0,-7.1l12.95,0l0,-6.85Z" style="fill:#dfa94a;fill-rule:nonzero;"/><path d="M740.728,377.339l-8.7,-26.5l-9.1,0l12.45,35.1l10.7,0l12.45,-35.1l-9.05,0l-8.75,26.5Z" style="fill:#dfa94a;fill-rule:nonzero;"/><path d="M783.578,350.839l-21.5,0l0,35.1l21.5,0l0,-6.85l-12.95,0l0,-7.7l11.45,0l0,-6.6l-11.45,0l0,-7.1l12.95,0l0,-6.85Z" style="fill:#dfa94a;fill-rule:nonzero;"/><path d="M789.128,350.839l0,35.1l19.75,0l0,-6.6l-11.2,0l0,-28.5l-8.55,0Z" style="fill:#dfa94a;fill-rule:nonzero;"/><path d="M847.528,368.289c0,-10.55 -7.95,-17.95 -17.95,-17.95c-9.95,0 -18.05,7.4 -18.05,17.95c0,10.55 8.1,18 18.05,18c9.95,0 17.95,-7.45 17.95,-18Zm-27.25,0c0,-6.25 3.6,-10.2 9.3,-10.2c5.6,0 9.25,3.95 9.25,10.2c0,6.15 -3.65,10.2 -9.25,10.2c-5.7,0 -9.3,-4.05 -9.3,-10.2Z" style="fill:#dfa94a;fill-rule:nonzero;"/><path d="M860.828,366.539l0,-8.8l4.65,0c3.4,0 4.85,1.7 4.85,4.4c0,2.7 -1.45,4.4 -4.85,4.4l-4.65,0Zm18.2,-4.4c0,-6.45 -4.3,-11.3 -12.9,-11.3l-13.85,0l0,35.1l8.55,0l0,-12.6l5.3,0c8.95,0 12.9,-5.4 12.9,-11.2Z" style="fill:#dfa94a;fill-rule:nonzero;"/><path d="M904.978,350.839l-21.5,0l0,35.1l21.5,0l0,-6.85l-12.95,0l0,-7.7l11.45,0l0,-6.6l-11.45,0l0,-7.1l12.95,0l0,-6.85Z" style="fill:#dfa94a;fill-rule:nonzero;"/><path d="M929.078,362.239c0,2.75 -1.5,4.4 -4.7,4.4l-5.3,0l0,-8.7l5.3,0c3.2,0 4.7,1.7 4.7,4.3Zm-18.55,-11.4l0,35.1l8.55,0l0,-13.25l2.05,0l7.3,13.25l9.65,0l-8.1,-13.9c5.4,-1.6 7.8,-5.75 7.8,-10.15c0,-6.1 -4.3,-11.05 -12.9,-11.05l-14.35,0Z" style="fill:#dfa94a;fill-rule:nonzero;"/></g></g></g></svg>